<svg width="104" height="102" viewBox="0 0 104 102" fill="none" xmlns="http://www.w3.org/2000/svg">
<g clip-path="url(#clip0)">
<path d="M75.3008 32.0872C89.1831 42.9712 92.0769 61.982 83.2675 71.8497C82.3851 72.8398 80.6397 72.8187 79.313 71.7056L76.8231 69.6167C76.2028 69.0963 75.8407 68.5288 75.6763 67.9765C75.3709 67.2202 75.3939 66.4185 75.9927 65.7466C91.4137 48.5473 56.2904 19.0807 42.0365 37.2591C41.2139 38.2993 39.3558 38.1836 38.0781 37.1116L35.5921 35.026C34.2623 33.9104 33.9372 32.1945 34.7588 31.1535C43.4915 20.0756 61.4434 21.2332 75.3008 32.0872Z" fill="#AB3773"/>
<mask id="path-2-inside-1" fill="white">
<path d="M61.9544 99.5627L11.1655 56.9535C10.7422 56.5984 10.56 56.1091 10.7506 55.8819L25.3318 38.5015L33.6723 28.5599C33.8648 28.3304 34.3735 28.4285 34.7978 28.7845L85.5818 71.3896C85.8121 71.5828 85.9517 71.7726 86.0133 71.9439C86.0133 71.9439 86.0164 71.9581 86.0152 71.9675C86.0152 71.9675 86.0303 71.9854 86.0285 72.0034C86.0676 72.085 86.0854 72.17 86.0803 72.2498C86.0751 72.3296 86.0472 72.4015 85.9993 72.4582L63.0801 99.7771C62.8889 100.005 62.3724 99.9082 61.953 99.5564"/>
</mask>
<path d="M61.9544 99.5627L11.1655 56.9535C10.7422 56.5984 10.56 56.1091 10.7506 55.8819L25.3318 38.5015L33.6723 28.5599C33.8648 28.3304 34.3735 28.4285 34.7978 28.7845L85.5818 71.3896C85.8121 71.5828 85.9517 71.7726 86.0133 71.9439C86.0133 71.9439 86.0164 71.9581 86.0152 71.9675C86.0152 71.9675 86.0303 71.9854 86.0285 72.0034C86.0676 72.085 86.0854 72.17 86.0803 72.2498C86.0751 72.3296 86.0472 72.4015 85.9993 72.4582L63.0801 99.7771C62.8889 100.005 62.3724 99.9082 61.953 99.5564" fill="#F79525"/>
<path d="M86.0133 71.9439L88.8358 70.9273L88.9041 71.1168L88.9464 71.3137L86.0133 71.9439ZM86.0152 71.9675L83.7236 73.9036L82.8725 72.8962L83.0393 71.588L86.0152 71.9675ZM86.0285 72.0034L83.3218 73.2971L82.9617 72.5437L83.0427 71.7125L86.0285 72.0034ZM85.9993 72.4582L83.701 70.53L83.7082 70.5215L85.9993 72.4582ZM60.0262 101.861L9.23733 59.2518L13.0936 54.6552L63.8825 97.2644L60.0262 101.861ZM9.23733 59.2518C8.69614 58.7978 8.20933 58.1826 7.92584 57.4416C7.69892 56.8484 7.31519 55.3091 8.45227 53.9537L13.0489 57.81C13.9954 56.6818 13.6074 55.5008 13.5298 55.2978C13.3956 54.947 13.2115 54.7541 13.0936 54.6552L9.23733 59.2518ZM8.45227 53.9537L23.0335 36.5734L27.6301 40.4297L13.0489 57.81L8.45227 53.9537ZM23.0335 36.5734L31.374 26.6317L35.9706 30.488L27.6301 40.4297L23.0335 36.5734ZM31.374 26.6317C32.5109 25.2766 34.0915 25.3835 34.7294 25.5095C35.5102 25.6637 36.1944 26.0402 36.726 26.4862L32.8697 31.0828C32.9769 31.1728 33.1947 31.3223 33.5669 31.3958C33.7963 31.4411 35.0263 31.6136 35.9706 30.488L31.374 26.6317ZM36.726 26.4862L87.51 69.0913L83.6536 73.6879L32.8697 31.0828L36.726 26.4862ZM87.51 69.0913C87.9903 69.4943 88.5362 70.0953 88.8358 70.9273L83.1908 72.9605C83.2832 73.2168 83.3998 73.3958 83.4809 73.5015C83.5633 73.6089 83.6299 73.668 83.6536 73.6879L87.51 69.0913ZM86.0133 71.9439C88.9464 71.3137 88.9465 71.314 88.9465 71.3143C88.9466 71.3144 88.9466 71.3147 88.9467 71.3149C88.9468 71.3154 88.9469 71.3158 88.9469 71.3162C88.9471 71.317 88.9473 71.3179 88.9475 71.3187C88.9478 71.3204 88.9482 71.3221 88.9486 71.3238C88.9493 71.3273 88.95 71.3309 88.9508 71.3345C88.9523 71.3418 88.9539 71.3495 88.9555 71.3576C88.9587 71.3738 88.9622 71.392 88.9658 71.4119C88.9728 71.4504 88.9815 71.5028 88.9897 71.5653C88.997 71.6213 89.0426 71.9434 88.9911 72.3471L83.0393 71.588C82.989 71.9822 83.0337 72.2925 83.0398 72.3391C83.0473 72.3968 83.0554 72.4451 83.0618 72.4806C83.0651 72.4991 83.0684 72.5161 83.0714 72.5314C83.073 72.5391 83.0745 72.5465 83.0759 72.5536C83.0767 72.5571 83.0774 72.5606 83.0781 72.564C83.0785 72.5657 83.0789 72.5674 83.0792 72.5691C83.0794 72.5699 83.0796 72.5707 83.0797 72.5716C83.0798 72.572 83.0799 72.5724 83.08 72.5728C83.0801 72.573 83.0801 72.5733 83.0801 72.5734C83.0802 72.5737 83.0803 72.5741 86.0133 71.9439ZM86.0152 71.9675C88.3068 70.0314 88.3073 70.032 88.3079 70.0327C88.308 70.0329 88.3086 70.0335 88.3089 70.0339C88.3096 70.0347 88.3103 70.0356 88.311 70.0364C88.3125 70.0381 88.3139 70.0398 88.3153 70.0415C88.3182 70.0449 88.321 70.0484 88.324 70.0519C88.3298 70.0589 88.3357 70.0661 88.3418 70.0736C88.3539 70.0884 88.3665 70.1043 88.3796 70.121C88.4057 70.1543 88.4343 70.1924 88.4646 70.2351C88.5229 70.3173 88.5984 70.4323 88.6745 70.5762C88.786 70.787 89.0991 71.4248 89.0144 72.2943L83.0427 71.7125C82.9597 72.5639 83.2662 73.1839 83.3705 73.3812C83.4431 73.5184 83.5149 73.6277 83.5705 73.706C83.5994 73.7468 83.6269 73.7834 83.6521 73.8156C83.6648 73.8319 83.6771 73.8473 83.689 73.8619C83.6949 73.8692 83.7008 73.8763 83.7066 73.8833C83.7094 73.8867 83.7123 73.8902 83.7151 73.8936C83.7166 73.8953 83.718 73.897 83.7194 73.8986C83.7201 73.8995 83.7208 73.9003 83.7215 73.9011C83.7218 73.9016 83.7224 73.9022 83.7225 73.9024C83.7231 73.903 83.7236 73.9036 86.0152 71.9675ZM88.7352 70.7096C88.9659 71.1922 89.1163 71.7865 89.0741 72.4424L83.0864 72.0572C83.0545 72.5535 83.1692 72.9778 83.3218 73.2971L88.7352 70.7096ZM89.0741 72.4424C89.031 73.1113 88.7862 73.8083 88.2904 74.3949L83.7082 70.5215C83.3082 70.9946 83.1192 71.548 83.0864 72.0572L89.0741 72.4424ZM88.2976 74.3863L65.3784 101.705L60.7818 97.849L83.701 70.53L88.2976 74.3863ZM65.3784 101.705C64.2374 103.065 62.6488 102.949 62.033 102.83C61.2573 102.68 60.567 102.31 60.0249 101.855L63.8812 97.2581C63.7584 97.1551 63.5361 97.0091 63.1713 96.9387C62.9862 96.9029 62.6623 96.8676 62.2559 96.9544C61.8323 97.0448 61.2519 97.2886 60.7818 97.849L65.3784 101.705Z" fill="#AB3773" mask="url(#path-2-inside-1)"/>
<mask id="path-4-inside-2" fill="white">
<path d="M25.9293 48.6711C24.3832 50.1916 21.0427 57.3018 23.4866 59.6027C25.9298 61.9045 33.2272 58.5218 34.7745 56.9998C36.3163 55.4745 34.4951 53.4621 32.0509 51.1595C29.6064 48.8593 27.4723 47.1443 25.9293 48.6711Z"/>
</mask>
<path d="M25.9293 48.6711C24.3832 50.1916 21.0427 57.3018 23.4866 59.6027C25.9298 61.9045 33.2272 58.5218 34.7745 56.9998C36.3163 55.4745 34.4951 53.4621 32.0509 51.1595C29.6064 48.8593 27.4723 47.1443 25.9293 48.6711Z" fill="#42ADE2"/>
<path d="M23.4866 59.6027L24.1721 58.8747L24.1723 58.8749L23.4866 59.6027ZM34.7745 56.9998L35.4778 57.7107L35.4757 57.7127L34.7745 56.9998ZM32.0509 51.1595L32.7362 50.4313L32.7366 50.4317L32.0509 51.1595ZM26.6304 49.3841C26.3528 49.6572 25.9109 50.2802 25.4326 51.1704C24.9664 52.038 24.5052 53.0851 24.164 54.1495C23.8201 55.2222 23.6144 56.2625 23.6198 57.1315C23.6253 58.0133 23.8439 58.5656 24.1721 58.8747L22.8011 60.3308C21.9074 59.4893 21.627 58.2901 21.6199 57.144C21.6126 55.9852 21.8804 54.7215 22.2594 53.539C22.6412 52.3481 23.1522 51.1888 23.6708 50.2237C24.1773 49.2812 24.7327 48.4453 25.2281 47.9582L26.6304 49.3841ZM24.1723 58.8749C24.5089 59.192 25.1103 59.3966 26.0471 59.3812C26.9645 59.3662 28.0504 59.1407 29.16 58.7833C30.262 58.4284 31.3424 57.9581 32.2354 57.4876C33.1517 57.0049 33.793 56.5626 34.0733 56.2869L35.4757 57.7127C34.9824 58.198 34.1313 58.7494 33.1677 59.257C32.181 59.7769 30.9942 60.2938 29.7731 60.687C28.5595 61.0779 27.2663 61.3616 26.0799 61.381C24.9129 61.4001 23.6859 61.1644 22.8009 60.3306L24.1723 58.8749ZM34.0712 56.2889C34.2928 56.0697 34.3406 55.8991 34.3433 55.7496C34.3466 55.5619 34.2775 55.2789 34.042 54.8721C33.5587 54.037 32.6028 53.0533 31.3652 51.8874L32.7366 50.4317C33.9433 51.5684 35.1201 52.7422 35.773 53.8702C36.1056 54.4449 36.3554 55.0949 36.3429 55.7855C36.3299 56.5143 36.0271 57.1672 35.4778 57.7107L34.0712 56.2889ZM31.3656 51.8878C30.1296 50.7247 29.0835 49.822 28.1983 49.3713C27.7668 49.1516 27.454 49.0828 27.2325 49.0916C27.0444 49.099 26.8538 49.1631 26.6326 49.382L25.2259 47.9603C25.7762 47.4158 26.4311 47.1217 27.1535 47.0931C27.8425 47.0659 28.5054 47.2833 29.1058 47.589C30.2846 48.1892 31.5277 49.2941 32.7362 50.4313L31.3656 51.8878Z" fill="#001C36" mask="url(#path-4-inside-2)"/>
<mask id="path-6-inside-3" fill="white">
<path d="M37.6847 52.7151C43.5679 55.5295 36.4353 46.6021 29.7652 43.247C23.2602 39.9758 34.6296 51.2561 37.6837 52.7142"/>
</mask>
<path d="M37.6847 52.7151C43.5679 55.5295 36.4353 46.6021 29.7652 43.247C23.2602 39.9758 34.6296 51.2561 37.6837 52.7142" fill="#42ADE2"/>
<path d="M29.7652 43.247L30.2145 42.3536L30.2146 42.3537L29.7652 43.247ZM38.1163 51.813C38.8301 52.1545 39.2125 52.2475 39.3597 52.2553C39.4277 52.2589 39.3149 52.236 39.157 52.3408C38.9573 52.4734 38.8857 52.6723 38.8733 52.7852C38.8648 52.8623 38.885 52.8653 38.8487 52.7555C38.8163 52.6573 38.7541 52.5152 38.6496 52.3278C38.4407 51.9531 38.1077 51.4768 37.6585 50.9279C35.8476 48.7147 32.5023 45.7432 29.3159 44.1404L30.2146 42.3537C33.6983 44.106 37.2544 47.2757 39.2064 49.6614C39.698 50.2622 40.1096 50.8392 40.3965 51.3538C40.5399 51.611 40.6634 51.8726 40.7479 52.1285C40.8286 52.3728 40.8969 52.6806 40.8612 53.0044C40.8216 53.3642 40.6474 53.752 40.2632 54.007C39.9208 54.2344 39.5415 54.2676 39.2545 54.2525C38.6918 54.2229 38.0102 53.9793 37.2532 53.6172L38.1163 51.813ZM29.316 44.1404C28.9312 43.9469 28.6351 43.8189 28.415 43.741C28.1785 43.6573 28.0931 43.6547 28.1068 43.6548C28.115 43.6549 28.4854 43.648 28.6971 43.2589C28.8568 42.9655 28.7508 42.7418 28.781 42.836C28.8229 42.9667 29.0014 43.2895 29.4016 43.8137C29.7773 44.3058 30.282 44.8914 30.8722 45.5263C32.0514 46.7947 33.5298 48.2147 34.8993 49.4051C36.3017 50.6241 37.4903 51.5138 38.1146 51.8118L37.2529 53.6167C36.3501 53.1857 34.9722 52.1184 33.5872 50.9146C32.1692 49.682 30.6391 48.213 29.4074 46.888C28.7921 46.2262 28.2407 45.5889 27.8119 45.0273C27.4076 44.4978 27.0333 43.936 26.8764 43.4464C26.8072 43.2304 26.6903 42.7627 26.9403 42.3031C27.2423 41.748 27.8044 41.653 28.1184 41.6549C28.4377 41.6567 28.7721 41.7458 29.0822 41.8555C29.4088 41.9711 29.7862 42.1383 30.2145 42.3536L29.316 44.1404Z" fill="#001C36" mask="url(#path-6-inside-3)"/>
<path d="M17.7778 52.3453C16.5878 53.7638 16.7711 55.8752 18.1854 57.0617C19.5976 58.2465 21.7088 58.0603 22.8989 56.6417L43.0249 32.6521C44.2142 31.2346 44.0299 29.1246 42.6174 27.9396C41.2027 26.7528 39.0929 26.9384 37.9038 28.3558L17.7778 52.3453Z" fill="#42ADE2" stroke="#001C36"/>
<path d="M37.7737 33.7129L37.7738 33.713C44.9331 39.7192 54.144 39.811 58.4729 34.6511C62.8023 29.4906 61.1071 20.4325 53.9517 14.4295C46.7979 8.4279 37.5894 8.33994 33.2608 13.4995C28.932 18.6593 30.6138 27.7074 37.7737 33.7129ZM45.1133 28.1984C44.3205 27.8757 43.5702 27.4201 42.9022 26.8593C41.5597 25.7322 40.5918 24.2149 40.2474 22.6077C39.9013 20.9931 40.2105 19.3765 41.2201 18.1745C42.2297 16.9724 43.7686 16.3885 45.4188 16.4501C47.0617 16.5113 48.7237 17.2019 50.0662 18.329C50.7343 18.8898 51.3128 19.5498 51.7679 20.2747C52.2229 20.9994 52.5498 21.7816 52.7211 22.5806C52.8924 23.3799 52.9057 24.1867 52.7431 24.9519C52.5802 25.7188 52.2447 26.4228 51.7484 27.0138C50.7388 28.2158 49.1998 28.7997 47.5496 28.7382C46.7329 28.7078 45.9059 28.5211 45.1133 28.1984Z" fill="#42ADE2" stroke="#001C36" stroke-width="2"/>
<mask id="path-10-inside-4" fill="white">
<path d="M60.5249 21.52C61.5829 24.0198 62.0208 26.585 61.7995 28.9844C61.5781 31.3838 60.7043 33.542 59.2568 35.2646C54.4367 41.01 44.5406 40.6524 37.1473 34.4498C37.019 34.3421 36.8988 34.2167 36.7708 34.1066C54.1324 40.0533 59.7051 26.8296 60.5194 21.5166"/>
</mask>
<path d="M60.5249 21.52C61.5829 24.0198 62.0208 26.585 61.7995 28.9844C61.5781 31.3838 60.7043 33.542 59.2568 35.2646C54.4367 41.01 44.5406 40.6524 37.1473 34.4498C37.019 34.3421 36.8988 34.2167 36.7708 34.1066C54.1324 40.0533 59.7051 26.8296 60.5194 21.5166" fill="#7672AA"/>
<path d="M59.2568 35.2646L58.4907 34.6219L58.4912 34.6213L59.2568 35.2646ZM36.7708 34.1066L36.119 34.8651L37.0948 33.1606L36.7708 34.1066ZM61.4459 21.1303C62.5598 23.7625 63.0336 26.4928 62.7952 29.0763L60.8037 28.8925C61.0081 26.6772 60.6059 24.2771 59.604 21.9097L61.4459 21.1303ZM62.7952 29.0763C62.5565 31.6635 61.6105 34.018 60.0224 35.9079L58.4912 34.6213C59.7981 33.066 60.5996 31.1041 60.8037 28.8925L62.7952 29.0763ZM60.0229 35.9073C54.7073 42.2434 44.1313 41.6143 36.5046 35.2159L37.79 33.6837C44.9499 39.6905 54.1661 39.7767 58.4907 34.6219L60.0229 35.9073ZM36.5046 35.2159C36.415 35.1408 36.3329 35.0633 36.2726 35.0064C36.2055 34.9431 36.1618 34.9018 36.119 34.8651L37.4225 33.3482C37.5078 33.4215 37.5882 33.498 37.6452 33.5518C37.7091 33.612 37.7513 33.6512 37.79 33.6837L36.5046 35.2159ZM37.0948 33.1606C45.487 36.0351 50.8319 34.2394 54.1895 31.2834C57.626 28.2581 59.147 23.87 59.531 21.3651L61.5079 21.6681C61.0775 24.4763 59.405 29.3565 55.5111 32.7846C51.5384 36.282 45.4162 38.1249 36.4467 35.0527L37.0948 33.1606Z" fill="black" mask="url(#path-10-inside-4)"/>
<mask id="path-12-inside-5" fill="white">
<path fill-rule="evenodd" clip-rule="evenodd" d="M44.6823 74.4754L39.0069 69.737L45.6322 61.8017C45.4315 59.992 46.032 57.9581 47.4315 56.2819C49.8671 53.3648 53.8002 52.6353 56.2163 54.6526C58.6324 56.6698 58.6167 60.6699 56.1811 63.5871C54.8943 65.1283 53.1895 66.0589 51.5112 66.2963L44.6823 74.4754Z"/>
</mask>
<path fill-rule="evenodd" clip-rule="evenodd" d="M44.6823 74.4754L39.0069 69.737L45.6322 61.8017C45.4315 59.992 46.032 57.9581 47.4315 56.2819C49.8671 53.3648 53.8002 52.6353 56.2163 54.6526C58.6324 56.6698 58.6167 60.6699 56.1811 63.5871C54.8943 65.1283 53.1895 66.0589 51.5112 66.2963L44.6823 74.4754Z" fill="#C4C4C4"/>
<path d="M39.0069 69.737L37.7251 71.2722L36.1898 69.9904L37.4717 68.4552L39.0069 69.737ZM44.6823 74.4754L46.2175 75.7573L44.9357 77.2925L43.4005 76.0107L44.6823 74.4754ZM45.6322 61.8017L47.62 61.5812L47.714 62.4288L47.1675 63.0835L45.6322 61.8017ZM51.5112 66.2963L49.9759 65.0145L50.4691 64.4239L51.231 64.3161L51.5112 66.2963ZM40.2887 68.2017L45.9641 72.9402L43.4005 76.0107L37.7251 71.2722L40.2887 68.2017ZM47.1675 63.0835L40.5421 71.0188L37.4717 68.4552L44.097 60.5199L47.1675 63.0835ZM48.9668 57.5637C47.888 58.8557 47.4841 60.3555 47.62 61.5812L43.6444 62.0222C43.3789 59.6284 44.176 57.0605 45.8963 55.0001L48.9668 57.5637ZM54.9345 56.1878C53.6243 55.0939 50.9311 55.211 48.9668 57.5637L45.8963 55.0001C48.8031 51.5185 53.976 50.1767 57.4981 53.1173L54.9345 56.1878ZM54.6458 62.3053C56.6101 59.9526 56.2447 57.2817 54.9345 56.1878L57.4981 53.1173C61.0202 56.058 60.6232 61.3873 57.7163 64.8689L54.6458 62.3053ZM51.231 64.3161C52.3883 64.1523 53.6561 63.4907 54.6458 62.3053L57.7163 64.8689C56.1325 66.7659 53.9906 67.9654 51.7914 68.2766L51.231 64.3161ZM43.147 73.1936L49.9759 65.0145L53.0464 67.5781L46.2175 75.7573L43.147 73.1936Z" fill="black" mask="url(#path-12-inside-5)"/>
</g>
<defs>
<clipPath id="clip0">
<rect width="81.8602" height="63.6904" fill="white" transform="matrix(-0.766102 -0.642719 -0.642719 0.766102 104 53)"/>
</clipPath>
</defs>
</svg>
