<svg width="48" height="48" viewBox="0 0 48 48" fill="none" xmlns="http://www.w3.org/2000/svg">
<path d="M5 24C5 42.9 19.8 43 22 43H26C26 43 24.1 26.5 5 24Z" fill="#2E7D32"/>
<path d="M22 26H26V43H22V26Z" fill="#388E3C"/>
<path d="M33.9998 16C33.9998 21.1 28.7998 24.2001 25.9998 24.2001C23.1998 24.2001 23.9998 21.1 23.9998 16C23.9998 10.9 28.9998 6.80005 28.9998 6.80005C28.9998 6.80005 33.9998 10.9 33.9998 16Z" fill="#C62828"/>
<path d="M14 16C14 21.1 19.2 24.2001 22 24.2001C24.8 24.2001 24 21.1 24 16C24 10.9 19 6.80005 19 6.80005C19 6.80005 14 10.9 14 16Z" fill="#C62828"/>
<path d="M24.0001 27C21.8001 25.4 22.1001 22.5 26.4001 18.2C30.8001 13.8 32.0001 7 32.0001 7C32.0001 7 37.0001 10.4 37.0001 16C37.0001 21.9 31.3001 27 24.0001 27Z" fill="#E53935"/>
<path d="M24 27C26.2 25.4 25.9 22.5 21.6 18.2C17.2 13.8 16 7 16 7C16 7 11 10.4 11 16C11 21.9 16.7 27 24 27Z" fill="#E53935"/>
<path d="M30 16C30 22.1 27.3 27 24 27C20.7 27 18 22.1 18 16C18 9.9 24 5 24 5C24 5 30 9.9 30 16Z" fill="#F44336"/>
<path d="M22 43H26C28.2 43 43 42.9 43 24C23.9 26.5 22 43 22 43Z" fill="#4CAF50"/>
</svg>
