<svg width="29" height="42" viewBox="0 0 29 42" fill="none" xmlns="http://www.w3.org/2000/svg">
<rect y="0.103027" width="29" height="41.6029" fill="#001C36"/>
<mask id="path-2-inside-1" fill="white">
<path fill-rule="evenodd" clip-rule="evenodd" d="M18.3934 34.603H11V21.9974C9.776 20.5711 9 18.45 9 16.0817C9 11.7871 11.5516 8.30562 14.6991 8.30562C17.8467 8.30562 20.3983 11.7871 20.3983 16.0817C20.3983 18.4531 19.6202 20.5767 18.3934 22.003V34.603Z"/>
</mask>
<path fill-rule="evenodd" clip-rule="evenodd" d="M18.3934 34.603H11V21.9974C9.776 20.5711 9 18.45 9 16.0817C9 11.7871 11.5516 8.30562 14.6991 8.30562C17.8467 8.30562 20.3983 11.7871 20.3983 16.0817C20.3983 18.4531 19.6202 20.5767 18.3934 22.003V34.603Z" fill="#C4C4C4"/>
<path d="M11 34.603V36.603H9V34.603H11ZM18.3934 34.603H20.3934V36.603H18.3934V34.603ZM11 21.9974L12.5177 20.6948L13 21.2568V21.9974H11ZM18.3934 22.003H16.3934V21.2612L16.8772 20.6988L18.3934 22.003ZM11 32.603H18.3934V36.603H11V32.603ZM13 21.9974V34.603H9V21.9974H13ZM11 16.0817C11 18.0367 11.6445 19.6773 12.5177 20.6948L9.48228 23.2999C7.90749 21.4649 7 18.8634 7 16.0817H11ZM14.6991 10.3056C13.9161 10.3056 13.038 10.7345 12.2824 11.7655C11.5277 12.7952 11 14.3147 11 16.0817H7C7 13.5541 7.74809 11.1856 9.0561 9.40089C10.3632 7.61745 12.3346 6.30562 14.6991 6.30562V10.3056ZM18.3983 16.0817C18.3983 14.3147 17.8706 12.7952 17.1159 11.7655C16.3603 10.7345 15.4822 10.3056 14.6991 10.3056V6.30562C17.0636 6.30562 19.0351 7.61745 20.3422 9.40089C21.6502 11.1856 22.3983 13.5541 22.3983 16.0817H18.3983ZM16.8772 20.6988C17.752 19.6816 18.3983 18.0394 18.3983 16.0817H22.3983C22.3983 18.8669 21.4884 21.4717 19.9097 23.3071L16.8772 20.6988ZM16.3934 34.603V22.003H20.3934V34.603H16.3934Z" fill="black" mask="url(#path-2-inside-1)"/>
</svg>
