<svg width="104" height="108" viewBox="0 0 104 108" fill="none" xmlns="http://www.w3.org/2000/svg">
<g clip-path="url(#clip0)">
<path d="M74.9492 33.8818C88.8315 45.4356 91.7253 65.6162 82.9158 76.0913C82.0335 77.1422 80.2881 77.1198 78.9613 75.9382L76.4714 73.7208C75.8512 73.1684 75.4891 72.566 75.3247 71.9797C75.0193 71.1768 75.0423 70.3258 75.6411 69.6126C91.0621 51.3549 55.9388 20.0749 41.6848 39.372C40.8623 40.4761 39.0042 40.3534 37.7264 39.2154L35.2404 37.0015C33.9107 35.8173 33.5856 33.9957 34.4072 32.8906C43.1399 21.1311 61.0918 22.3598 74.9492 33.8818Z" fill="#120078"/>
<mask id="path-2-inside-1" fill="white">
<path d="M61.6029 105.51L10.814 60.2783C10.3907 59.9013 10.2085 59.3819 10.3991 59.1407L24.9803 40.6908L33.3208 30.1374C33.5133 29.8938 34.022 29.9979 34.4463 30.3758L85.2303 75.6028C85.4606 75.8078 85.6001 76.0094 85.6618 76.1912C85.6618 76.1912 85.6649 76.2063 85.6637 76.2163C85.6637 76.2163 85.6788 76.2352 85.677 76.2543C85.716 76.341 85.7339 76.4312 85.7287 76.5159C85.7236 76.6006 85.6957 76.6769 85.6478 76.7371L62.7286 105.737C62.5374 105.979 62.0209 105.876 61.6015 105.503"/>
</mask>
<path d="M61.6029 105.51L10.814 60.2783C10.3907 59.9013 10.2085 59.3819 10.3991 59.1407L24.9803 40.6908L33.3208 30.1374C33.5133 29.8938 34.022 29.9979 34.4463 30.3758L85.2303 75.6028C85.4606 75.8078 85.6001 76.0094 85.6618 76.1912C85.6618 76.1912 85.6649 76.2063 85.6637 76.2163C85.6637 76.2163 85.6788 76.2352 85.677 76.2543C85.716 76.341 85.7339 76.4312 85.7287 76.5159C85.7236 76.6006 85.6957 76.6769 85.6478 76.7371L62.7286 105.737C62.5374 105.979 62.0209 105.876 61.6015 105.503" fill="#8984AA"/>
<path d="M85.6618 76.1912L88.4009 75.1736L88.4675 75.3699L88.5087 75.5736L85.6618 76.1912ZM85.6637 76.2163L83.4457 78.1914L82.6129 77.1451L82.775 75.7959L85.6637 76.2163ZM85.677 76.2543L83.0513 77.5598L82.7002 76.7801L82.7787 75.9246L85.677 76.2543ZM85.6478 76.7371L83.4074 74.7419L83.4143 74.7332L85.6478 76.7371ZM59.7427 107.863L8.95383 62.632L12.6741 57.9246L63.463 103.156L59.7427 107.863ZM8.95383 62.632C8.41711 62.154 7.93639 61.508 7.65729 60.7335C7.43057 60.1044 7.0682 58.5254 8.15872 57.1455L12.6394 61.1359C13.5393 59.9973 13.1728 58.7985 13.0953 58.5836C12.9655 58.2234 12.7875 58.0256 12.6741 57.9246L8.95383 62.632ZM8.15872 57.1455L22.7399 38.6956L27.2206 42.686L12.6394 61.1359L8.15872 57.1455ZM22.7399 38.6956L31.0804 28.1422L35.5611 32.1326L27.2206 42.686L22.7399 38.6956ZM31.0804 28.1422C32.1707 26.7626 33.6967 26.8633 34.3337 26.9969C35.1024 27.158 35.7792 27.5526 36.3065 28.0221L32.5862 32.7295C32.6891 32.8212 32.8994 32.9747 33.2596 33.0502C33.488 33.0981 34.6634 33.2685 35.5611 32.1326L31.0804 28.1422ZM36.3065 28.0221L87.0904 73.2491L83.3701 77.9564L32.5862 32.7295L36.3065 28.0221ZM87.0904 73.2491C87.5677 73.6741 88.1062 74.305 88.4009 75.1736L82.9228 77.2088C83.0124 77.4728 83.1257 77.6575 83.2044 77.7664C83.2843 77.8769 83.3485 77.9372 83.3701 77.9564L87.0904 73.2491ZM85.6618 76.1912C88.5087 75.5736 88.5088 75.574 88.5089 75.5743C88.5089 75.5744 88.509 75.5747 88.509 75.5749C88.5091 75.5754 88.5092 75.5758 88.5093 75.5762C88.5094 75.5771 88.5096 75.5779 88.5098 75.5788C88.5101 75.5806 88.5105 75.5823 88.5108 75.5841C88.5116 75.5877 88.5123 75.5914 88.513 75.5952C88.5145 75.6027 88.516 75.6107 88.5176 75.6191C88.5207 75.6357 88.5241 75.6545 88.5277 75.6752C88.5344 75.7149 88.5429 75.7691 88.5508 75.8335C88.558 75.8921 88.6021 76.223 88.5524 76.6367L82.775 75.7959C82.7265 76.1995 82.7696 76.5179 82.7756 76.5664C82.7829 76.6259 82.7907 76.6756 82.7969 76.7122C82.8002 76.7313 82.8033 76.7488 82.8063 76.7646C82.8078 76.7725 82.8093 76.7802 82.8107 76.7875C82.8114 76.7912 82.8121 76.7948 82.8128 76.7983C82.8132 76.8001 82.8135 76.8018 82.8139 76.8035C82.814 76.8044 82.8142 76.8053 82.8144 76.8061C82.8145 76.8065 82.8146 76.807 82.8146 76.8074C82.8147 76.8076 82.8148 76.8079 82.8148 76.808C82.8148 76.8084 82.8149 76.8087 85.6618 76.1912ZM85.6637 76.2163C87.8817 74.2412 87.8822 74.2418 87.8828 74.2425C87.8829 74.2427 87.8834 74.2433 87.8838 74.2438C87.8845 74.2446 87.8852 74.2455 87.8859 74.2464C87.8873 74.2481 87.8887 74.2499 87.8901 74.2517C87.8929 74.2552 87.8957 74.2589 87.8986 74.2625C87.9043 74.2699 87.9102 74.2774 87.9161 74.2852C87.928 74.3007 87.9405 74.3172 87.9534 74.3347C87.979 74.3695 88.0072 74.4093 88.037 74.4539C88.0943 74.5398 88.1684 74.6596 88.2431 74.8095C88.3538 75.0316 88.6573 75.691 88.5753 76.584L82.7787 75.9246C82.6985 76.7986 82.9954 77.4389 83.0989 77.6467C83.17 77.7895 83.2405 77.9034 83.2951 77.9851C83.3235 78.0276 83.3505 78.0658 83.3753 78.0995C83.3878 78.1164 83.3999 78.1325 83.4116 78.1478C83.4175 78.1554 83.4232 78.1629 83.4289 78.1701C83.4317 78.1737 83.4345 78.1773 83.4373 78.1809C83.4387 78.1826 83.4401 78.1844 83.4415 78.1862C83.4422 78.187 83.4429 78.1879 83.4436 78.1888C83.4439 78.1892 83.4445 78.1899 83.4446 78.1901C83.4451 78.1907 83.4457 78.1914 85.6637 76.2163ZM88.3028 74.9489C88.5298 75.4532 88.6756 76.0695 88.6347 76.745L82.8228 76.2869C82.7921 76.793 82.9022 77.2288 83.0513 77.5598L88.3028 74.9489ZM88.6347 76.745C88.593 77.433 88.3563 78.1444 87.8812 78.741L83.4143 74.7332C83.0351 75.2094 82.8542 75.7683 82.8228 76.2869L88.6347 76.745ZM87.8881 78.7323L64.9689 107.732L60.4882 103.742L83.4074 74.7419L87.8881 78.7323ZM64.9689 107.732C63.8746 109.117 62.3409 109.006 61.7254 108.88C60.9617 108.723 60.279 108.335 59.7413 107.857L63.4616 103.149C63.3434 103.044 63.1286 102.894 62.7758 102.822C62.5711 102.78 61.3914 102.599 60.4882 103.742L64.9689 107.732Z" fill="black" mask="url(#path-2-inside-1)"/>
<mask id="path-4-inside-2" fill="white">
<path d="M25.5777 51.4863C24.0316 53.1004 20.6911 60.6481 23.135 63.0907C25.5783 65.5341 32.8756 61.9432 34.4229 60.3276C35.9647 58.7084 34.1435 56.5721 31.6993 54.1279C29.2548 51.6861 27.1208 49.8655 25.5777 51.4863Z"/>
</mask>
<path d="M25.5777 51.4863C24.0316 53.1004 20.6911 60.6481 23.135 63.0907C25.5783 65.5341 32.8756 61.9432 34.4229 60.3276C35.9647 58.7084 34.1435 56.5721 31.6993 54.1279C29.2548 51.6861 27.1208 49.8655 25.5777 51.4863Z" fill="#42ADE2"/>
<path d="M23.135 63.0907L23.7972 62.3459L23.7974 62.3461L23.135 63.0907ZM34.4229 60.3276L35.1097 61.0617L35.1078 61.0638L34.4229 60.3276ZM31.6993 54.1279L32.3613 53.3829L32.3617 53.3833L31.6993 54.1279ZM26.2625 52.2226C25.9799 52.5177 25.5355 53.1841 25.0565 54.1303C24.5891 55.0536 24.1269 56.1677 23.7849 57.3003C23.4403 58.4416 23.2334 59.5503 23.2389 60.4781C23.2444 61.4201 23.4645 62.0134 23.7972 62.3459L22.4728 63.8355C21.5836 62.9467 21.3048 61.6805 21.2976 60.4699C21.2904 59.245 21.5571 57.908 21.9354 56.6553C22.3163 55.3939 22.8263 54.1658 23.3437 53.1436C23.8495 52.1443 24.4025 51.262 24.8929 50.75L26.2625 52.2226ZM23.7974 62.3461C24.1381 62.6868 24.745 62.9049 25.6861 62.8886C26.6074 62.8725 27.6967 62.6322 28.8084 62.2521C29.9126 61.8746 30.995 61.3744 31.8901 60.8738C32.8071 60.3609 33.453 59.889 33.7381 59.5913L35.1078 61.0638C34.6191 61.574 33.7726 62.1567 32.8099 62.6952C31.8251 63.2459 30.6404 63.7937 29.4215 64.2104C28.21 64.6246 26.9202 64.9248 25.7377 64.9453C24.575 64.9655 23.3536 64.7162 22.4726 63.8352L23.7974 62.3461ZM33.7361 59.5934C33.9655 59.3525 34.0182 59.1602 34.021 58.9905C34.0245 58.783 33.9527 58.4778 33.7166 58.0448C33.2319 57.1556 32.2742 56.1098 31.0369 54.8725L32.3617 53.3833C33.5687 54.5902 34.7437 55.8347 35.3951 57.0295C35.7271 57.6384 35.9743 58.3236 35.962 59.0484C35.9491 59.8111 35.6513 60.493 35.1097 61.0617L33.7361 59.5934ZM31.0374 54.8729C29.8016 53.6385 28.7539 52.6785 27.8665 52.1989C27.4339 51.9651 27.1174 51.8901 26.8897 51.8996C26.6936 51.9079 26.4936 51.9799 26.2645 52.2204L24.8908 50.7522C25.4333 50.1824 26.0787 49.8742 26.7931 49.8442C27.4759 49.8156 28.135 50.0444 28.7345 50.3684C29.9109 51.0043 31.1526 52.1755 32.3613 53.3829L31.0374 54.8729Z" fill="black" mask="url(#path-4-inside-2)"/>
<mask id="path-6-inside-3" fill="white">
<path d="M37.3331 55.7791C43.2163 58.7668 36.0837 49.29 29.4136 45.7285C22.9086 42.2559 34.278 54.2304 37.3321 55.7783"/>
</mask>
<path d="M37.3331 55.7791C43.2163 58.7668 36.0837 49.29 29.4136 45.7285C22.9086 42.2559 34.278 54.2304 37.3321 55.7783" fill="#42ADE2"/>
<path d="M29.4136 45.7285L29.8432 44.8109L29.8433 44.8109L29.4136 45.7285ZM37.7453 54.8525C38.4591 55.215 38.8446 55.3155 38.9968 55.324C39.0668 55.3279 38.9628 55.304 38.8152 55.408C38.6289 55.5394 38.5623 55.7365 38.5508 55.8471C38.5431 55.9216 38.5618 55.92 38.5251 55.8022C38.4921 55.6959 38.4293 55.5438 38.3244 55.3442C38.1148 54.9451 37.7811 54.4386 37.3316 53.8555C35.5195 51.5046 32.1727 48.3487 28.9839 46.646L29.8433 44.8109C33.3247 46.6698 36.8792 50.033 38.8301 52.564C39.3214 53.2014 39.7323 53.813 40.0184 54.3579C40.1615 54.6303 40.2844 54.9066 40.3683 55.1764C40.4485 55.4345 40.5154 55.7563 40.4805 56.0928C40.4418 56.4654 40.2726 56.863 39.9017 57.1244C39.5697 57.3584 39.1992 57.3941 38.9142 57.3782C38.3565 57.347 37.6779 57.0902 36.9209 56.7058L37.7453 54.8525ZM28.984 46.646C28.5988 46.4404 28.302 46.3041 28.081 46.2211C27.8441 46.1321 27.7558 46.1282 27.7652 46.1283C27.7711 46.1283 28.1213 46.1217 28.3211 45.7317C28.4723 45.4368 28.3713 45.2124 28.4013 45.3118C28.4444 45.4547 28.6249 45.7998 29.0249 46.356C29.4011 46.879 29.9061 47.5011 30.4965 48.1752C31.6761 49.5222 33.1549 51.03 34.5248 52.294C35.927 53.5879 37.1171 54.5337 37.7436 54.8512L36.9206 56.7053C36.0201 56.2489 34.6436 55.1174 33.2584 53.8393C31.8408 52.5313 30.3112 50.9722 29.0798 49.5662C28.4647 48.8638 27.9136 48.1878 27.4853 47.5923C27.0809 47.0299 26.7085 46.436 26.5529 45.9204C26.4835 45.6906 26.3715 45.2071 26.613 44.7358C26.9032 44.1696 27.445 44.0694 27.7567 44.0713C28.0718 44.0732 28.4033 44.1667 28.713 44.283C29.0386 44.4053 29.4153 44.5824 29.8432 44.8109L28.984 46.646Z" fill="black" mask="url(#path-6-inside-3)"/>
<path d="M17.4166 55.378C16.2173 56.8955 16.4065 59.1465 17.8225 60.4076C19.2364 61.6667 21.3576 61.4736 22.557 59.9559L42.683 34.4901C43.8815 32.9735 43.6913 30.7241 42.2771 29.4646C40.8608 28.2033 38.741 28.3958 37.5426 29.9121L17.4166 55.378Z" fill="#42ADE2" stroke="black"/>
<mask id="path-9-inside-4" fill="white">
<path d="M54.2429 14.3243C61.6313 20.9042 63.7126 31.1803 58.8874 37.2858C54.0628 43.3904 44.1719 43.0043 36.7796 36.4209C29.3856 29.8374 27.3192 19.5719 32.1432 13.468C36.9671 7.3642 46.8554 7.7452 54.2429 14.3243ZM43.1936 27.5192C43.7844 28.0457 44.4453 28.4709 45.1388 28.7706C45.8323 29.0703 46.5447 29.2386 47.2353 29.2659C48.6301 29.3211 49.8516 28.7987 50.6311 27.8135C51.017 27.3257 51.2829 26.739 51.4134 26.0868C51.5439 25.4347 51.5366 24.7299 51.3918 24.0127C51.247 23.2955 50.9675 22.5799 50.5695 21.9069C50.1714 21.2338 49.6625 20.6164 49.0717 20.09C47.8787 19.0267 46.4249 18.3984 45.0301 18.3432C43.6353 18.288 42.4138 18.8105 41.6343 19.7957C40.8548 20.7808 40.5812 22.148 40.8736 23.5965C41.1661 25.0449 42.0006 26.456 43.1936 27.5192Z"/>
</mask>
<path d="M54.2429 14.3243C61.6313 20.9042 63.7126 31.1803 58.8874 37.2858C54.0628 43.3904 44.1719 43.0043 36.7796 36.4209C29.3856 29.8374 27.3192 19.5719 32.1432 13.468C36.9671 7.3642 46.8554 7.7452 54.2429 14.3243ZM43.1936 27.5192C43.7844 28.0457 44.4453 28.4709 45.1388 28.7706C45.8323 29.0703 46.5447 29.2386 47.2353 29.2659C48.6301 29.3211 49.8516 28.7987 50.6311 27.8135C51.017 27.3257 51.2829 26.739 51.4134 26.0868C51.5439 25.4347 51.5366 24.7299 51.3918 24.0127C51.247 23.2955 50.9675 22.5799 50.5695 21.9069C50.1714 21.2338 49.6625 20.6164 49.0717 20.09C47.8787 19.0267 46.4249 18.3984 45.0301 18.3432C43.6353 18.288 42.4138 18.8105 41.6343 19.7957C40.8548 20.7808 40.5812 22.148 40.8736 23.5965C41.1661 25.0449 42.0006 26.456 43.1936 27.5192Z" fill="#42ADE2"/>
<path d="M36.7796 36.4209L38.0195 34.8517L38.0197 34.8518L36.7796 36.4209ZM47.2353 29.2659L47.1827 31.3215L47.2353 29.2659ZM50.6311 27.8135L49.1382 26.4825L50.6311 27.8135ZM49.0717 20.09L50.3123 18.5213L49.0717 20.09ZM55.4829 12.7551C63.3413 19.7536 66.1526 31.313 60.381 38.6159L57.3939 35.9557C61.2727 31.0477 59.9212 22.0548 53.0028 15.8934L55.4829 12.7551ZM60.381 38.6159C54.6102 45.9179 43.402 44.9922 35.5395 37.99L38.0197 34.8518C44.9418 41.0165 53.5155 40.863 57.3939 35.9557L60.381 38.6159ZM35.5396 37.9902C27.6736 30.9864 24.8805 19.4376 30.6496 12.1379L33.6367 14.7982C29.7579 19.7061 31.0976 28.6885 38.0195 34.8517L35.5396 37.9902ZM30.6496 12.1379C36.419 4.83779 47.6241 5.75624 55.4829 12.7551L53.0028 15.8934C46.0867 9.73415 37.5153 9.89061 33.6367 14.7982L30.6496 12.1379ZM44.4342 25.9505C44.8726 26.3412 45.3579 26.6516 45.8562 26.867L44.4215 30.6742C43.5328 30.2901 42.6961 29.7501 41.953 29.0879L44.4342 25.9505ZM45.8562 26.867C46.3549 27.0825 46.8428 27.1927 47.288 27.2103L47.1827 31.3215C46.2465 31.2845 45.3097 31.0581 44.4215 30.6742L45.8562 26.867ZM47.288 27.2103C48.1847 27.2458 48.7974 26.9132 49.1382 26.4825L52.124 29.1445C50.9058 30.6841 49.0756 31.3964 47.1827 31.3215L47.288 27.2103ZM49.1382 26.4825C49.3136 26.2609 49.4459 25.9813 49.5142 25.6404L53.3126 26.5332C53.1198 27.4966 52.7205 28.3905 52.124 29.1445L49.1382 26.4825ZM49.5142 25.6404C49.583 25.2963 49.5868 24.8848 49.4936 24.4233L53.2899 23.602C53.4863 24.5749 53.5048 25.5731 53.3126 26.5332L49.5142 25.6404ZM49.4936 24.4233C49.4003 23.9612 49.2137 23.4703 48.9275 22.9864L52.2115 20.8273C52.7214 21.6895 53.0936 22.6297 53.2899 23.602L49.4936 24.4233ZM48.9275 22.9864C48.6415 22.5028 48.2695 22.0493 47.8311 21.6586L50.3123 18.5213C51.0555 19.1835 51.7013 19.9648 52.2115 20.8273L48.9275 22.9864ZM47.8311 21.6586C46.9332 20.8584 45.8885 20.4349 44.9774 20.3988L45.0827 16.2876C46.9612 16.3619 48.8242 17.1951 50.3123 18.5213L47.8311 21.6586ZM44.9774 20.3988C44.0807 20.3633 43.468 20.6959 43.1272 21.1267L40.1414 18.4647C41.3596 16.925 43.1898 16.2127 45.0827 16.2876L44.9774 20.3988ZM43.1272 21.1267C42.7864 21.5573 42.5839 22.2551 42.7718 23.1858L38.9755 24.0071C38.5785 22.041 38.9232 20.0043 40.1414 18.4647L43.1272 21.1267ZM42.7718 23.1858C42.9627 24.1316 43.5363 25.1503 44.4342 25.9505L41.953 29.0879C40.4649 27.7616 39.3694 25.9582 38.9755 24.0071L42.7718 23.1858Z" fill="black" mask="url(#path-9-inside-4)"/>
<path d="M60.1734 22.6644C61.2313 25.3181 61.6693 28.0411 61.4479 30.5882C61.2265 33.1352 60.3527 35.4262 58.9052 37.2549C54.0851 43.3538 44.189 42.9742 36.7957 36.3899C36.6674 36.2756 36.5472 36.1424 36.4192 36.0256C53.7808 42.3382 59.3535 28.3008 60.1678 22.6608" fill="#0D0B60"/>
<mask id="path-12-inside-5" fill="white">
<path fill-rule="evenodd" clip-rule="evenodd" d="M43.5348 80.1588L37.859 75.1286L44.4845 66.7052C44.2837 64.7841 44.8842 62.6251 46.2837 60.8458C48.7193 57.7493 52.6525 56.975 55.0688 59.1164C57.485 61.2578 57.4693 65.504 55.0337 68.6005C53.747 70.2364 52.0423 71.2242 50.3641 71.4763L43.5348 80.1588Z"/>
</mask>
<path fill-rule="evenodd" clip-rule="evenodd" d="M43.5348 80.1588L37.859 75.1286L44.4845 66.7052C44.2837 64.7841 44.8842 62.6251 46.2837 60.8458C48.7193 57.7493 52.6525 56.975 55.0688 59.1164C57.485 61.2578 57.4693 65.504 55.0337 68.6005C53.747 70.2364 52.0423 71.2242 50.3641 71.4763L43.5348 80.1588Z" fill="#C4C4C4"/>
<path d="M37.859 75.1286L36.6224 76.7008L35.1258 75.3744L36.3625 73.8022L37.859 75.1286ZM43.5348 80.1588L45.0313 81.4852L43.7948 83.0573L42.2983 81.7311L43.5348 80.1588ZM44.4845 66.7052L46.414 66.4994L46.5046 67.3659L45.981 68.0316L44.4845 66.7052ZM46.2837 60.8458L47.7802 62.1722L46.2837 60.8458ZM55.0688 59.1164L56.3053 57.5441L55.0688 59.1164ZM55.0337 68.6005L53.5372 67.2741L55.0337 68.6005ZM50.3641 71.4763L48.8676 70.1499L49.3397 69.5497L50.0724 69.4396L50.3641 71.4763ZM39.0956 73.5563L44.7714 78.5865L42.2983 81.7311L36.6224 76.7008L39.0956 73.5563ZM45.981 68.0316L39.3555 76.455L36.3625 73.8022L42.988 65.3788L45.981 68.0316ZM47.7802 62.1722C46.6861 63.5633 46.276 65.1789 46.414 66.4994L42.555 66.911C42.2914 64.3893 43.0823 61.687 44.7872 59.5194L47.7802 62.1722ZM53.8322 60.6887C52.5069 59.5141 49.7741 59.6373 47.7802 62.1722L44.7872 59.5194C47.6646 55.8612 52.7982 54.4359 56.3053 57.5441L53.8322 60.6887ZM53.5372 67.2741C55.531 64.7392 55.1575 61.8632 53.8322 60.6887L56.3053 57.5441C59.8126 60.6524 59.4076 66.2688 56.5302 69.9269L53.5372 67.2741ZM50.0724 69.4396C51.247 69.2631 52.5335 68.5503 53.5372 67.2741L56.5302 69.9269C54.9606 71.9226 52.8376 73.1852 50.6559 73.5129L50.0724 69.4396ZM42.0383 78.8324L48.8676 70.1499L51.8606 72.8027L45.0313 81.4852L42.0383 78.8324Z" fill="black" mask="url(#path-12-inside-5)"/>
</g>
<defs>
<clipPath id="clip0">
<rect width="83.9778" height="66.019" fill="white" transform="matrix(-0.746784 -0.665067 -0.62005 0.784562 103.648 56.0815)"/>
</clipPath>
</defs>
</svg>
