<svg width="160" height="36" viewBox="0 0 160 36" fill="none" xmlns="http://www.w3.org/2000/svg">
<rect x="3.99997" y="2.99997" width="152" height="30" rx="14" fill="#FAF61E"/>
<path fill-rule="evenodd" clip-rule="evenodd" d="M146.296 0.2258C153.476 0.2258 159.296 6.04609 159.296 13.2258V16.4943C159.296 21.4529 156.52 25.763 152.437 27.9553C150.434 32.5524 145.849 35.766 140.514 35.766H13.2962C6.11653 35.766 0.296234 29.9457 0.296234 22.766V19.4976C0.296234 14.539 3.0724 10.2288 7.15523 8.03657C9.15881 3.43947 13.7432 0.2258 19.0782 0.2258H146.296ZM7.15523 8.03657C8.98407 7.05459 11.0751 6.49756 13.2962 6.49756H140.514C147.694 6.49756 153.514 12.3179 153.514 19.4976V22.766C153.514 24.6107 153.13 26.3657 152.437 27.9553C150.609 28.9373 148.518 29.4943 146.296 29.4943H19.0782C11.8985 29.4943 6.07822 23.674 6.07822 16.4943V13.2258C6.07822 11.3811 6.46245 9.62613 7.15523 8.03657Z" fill="#F79525"/>
</svg>
