<svg width="41" height="35" viewBox="0 0 41 35" fill="none" xmlns="http://www.w3.org/2000/svg">
<path d="M19.6189 0.641273C19.9961 -0.0614194 21.0039 -0.0614203 21.3811 0.641273L26.7336 10.6121C26.8882 10.9001 27.1737 11.0943 27.4983 11.1323L39.6058 12.551C40.4754 12.6529 40.8035 13.7439 40.1344 14.3085L31.4411 21.6439C31.1604 21.8807 31.0321 22.2525 31.107 22.6121L33.3114 33.1942C33.4805 34.0061 32.6448 34.6591 31.8979 34.2988L20.9345 29.0096C20.66 28.8772 20.34 28.8772 20.0655 29.0096L9.10207 34.2988C8.35516 34.6591 7.51945 34.0061 7.68858 33.1942L9.89301 22.6121C9.96792 22.2525 9.83965 21.8807 9.55892 21.6439L0.86564 14.3085C0.196522 13.7439 0.524608 12.6529 1.39416 12.551L13.5017 11.1323C13.8263 11.0943 14.1118 10.9001 14.2664 10.6121L19.6189 0.641273Z" fill="#FAF61E"/>
</svg>
