<svg width="44" height="40" viewBox="0 0 44 40" fill="none" xmlns="http://www.w3.org/2000/svg">
<mask id="mask0" mask-type="alpha" maskUnits="userSpaceOnUse" x="0" y="0" width="44" height="40">
<rect width="44" height="40" fill="#C4C4C4"/>
</mask>
<g mask="url(#mask0)">
<g filter="url(#filter0_dd)">
<path d="M19.9281 2.29653C20.597 -0.381467 24.403 -0.381467 25.0719 2.29653C25.5721 4.29926 28.0684 4.98701 29.5238 3.52308L29.799 3.24617C31.6975 1.3365 34.8815 3.26228 34.0717 5.8304C33.4566 7.78121 35.2567 9.63371 37.2243 9.07474L37.6127 8.96441C40.1669 8.23881 41.9449 11.4658 39.9669 13.2373C38.4511 14.5948 39.1077 17.0989 41.0929 17.5456C43.7078 18.134 43.7078 21.866 41.0929 22.4544C39.1077 22.9011 38.4511 25.4052 39.9669 26.7627C41.9449 28.5342 40.1669 31.7612 37.6127 31.0356L37.2243 30.9253C35.2567 30.3663 33.4566 32.2188 34.0717 34.1696C34.8815 36.7377 31.6975 38.6635 29.799 36.7538L29.5238 36.4769C28.0684 35.013 25.5721 35.7007 25.0719 37.7035C24.403 40.3815 20.597 40.3815 19.9281 37.7035C19.4279 35.7007 16.9316 35.013 15.4762 36.4769L15.201 36.7538C13.3025 38.6635 10.1185 36.7377 10.9283 34.1696C11.5434 32.2188 9.74331 30.3663 7.77567 30.9253L7.38732 31.0356C4.83311 31.7612 3.05514 28.5342 5.0331 26.7627C6.54887 25.4052 5.89227 22.9011 3.9071 22.4544C1.29216 21.866 1.29216 18.134 3.90709 17.5456C5.89227 17.0989 6.54887 14.5948 5.0331 13.2373C3.05514 11.4658 4.83311 8.23881 7.38733 8.96442L7.77567 9.07474C9.74332 9.63371 11.5434 7.78121 10.9283 5.8304C10.1185 3.26228 13.3025 1.3365 15.201 3.24617L15.4762 3.52307C16.9316 4.98701 19.4279 4.29926 19.9281 2.29653Z" fill="#AB3773"/>
<path d="M14.1372 35.6963L15.201 36.7538L14.1372 35.6963C13.347 36.4911 12.0218 35.6896 12.3589 34.6207C13.3331 31.531 10.4821 28.5971 7.36577 29.4824L6.97741 29.5927C5.95369 29.8835 5.24105 28.5901 6.03384 27.8801C8.46244 25.705 7.40507 21.704 4.2364 20.991C3.18239 20.7538 3.18239 19.2462 4.2364 19.009C7.40507 18.296 8.46244 14.295 6.03384 12.1199C5.24106 11.4099 5.95368 10.1165 6.97742 10.4073L7.36577 10.5176L7.77567 9.07474L7.36577 10.5176C10.4821 11.4029 13.3331 8.46896 12.3589 5.37929C12.0218 4.31042 13.347 3.50888 14.1372 4.30371L14.4125 4.58061C16.6913 6.8729 20.6001 5.796 21.3834 2.66003C21.6738 1.49736 23.3262 1.49737 23.6166 2.66003C24.3999 5.796 28.3087 6.87291 30.5875 4.58062L29.5238 3.52308L30.5875 4.58061L30.8628 4.30371C31.653 3.50888 32.9782 4.31042 32.6411 5.37929C31.6669 8.46897 34.5179 11.4029 37.6342 10.5176L38.0226 10.4073C39.0463 10.1165 39.759 11.4099 38.9662 12.1199C36.5376 14.295 37.5949 18.296 40.7636 19.009C41.8176 19.2462 41.8176 20.7538 40.7636 20.991C37.5949 21.704 36.5376 25.705 38.9662 27.8801C39.7589 28.5901 39.0463 29.8835 38.0226 29.5927L37.6342 29.4824C34.5179 28.5971 31.6669 31.531 32.6411 34.6207C32.9782 35.6896 31.653 36.4911 30.8628 35.6963L30.5875 35.4194C28.3087 33.1271 24.3999 34.204 23.6166 37.34C23.3262 38.5026 21.6738 38.5026 21.3834 37.34C20.6001 34.204 16.6913 33.1271 14.4125 35.4194L14.1372 35.6963Z" stroke="#F79525" stroke-width="3"/>
</g>
</g>
<defs>
<filter id="filter0_dd" x="-2.05411" y="0.288025" width="49.1082" height="47.4239" filterUnits="userSpaceOnUse" color-interpolation-filters="sRGB">
<feFlood flood-opacity="0" result="BackgroundImageFix"/>
<feColorMatrix in="SourceAlpha" type="matrix" values="0 0 0 0 0 0 0 0 0 0 0 0 0 0 0 0 0 0 127 0"/>
<feOffset dy="4"/>
<feGaussianBlur stdDeviation="2"/>
<feColorMatrix type="matrix" values="0 0 0 0 0 0 0 0 0 0 0 0 0 0 0 0 0 0 0.25 0"/>
<feBlend mode="normal" in2="BackgroundImageFix" result="effect1_dropShadow"/>
<feColorMatrix in="SourceAlpha" type="matrix" values="0 0 0 0 0 0 0 0 0 0 0 0 0 0 0 0 0 0 127 0"/>
<feOffset dy="4"/>
<feGaussianBlur stdDeviation="2"/>
<feColorMatrix type="matrix" values="0 0 0 0 0 0 0 0 0 0 0 0 0 0 0 0 0 0 0.25 0"/>
<feBlend mode="normal" in2="effect1_dropShadow" result="effect2_dropShadow"/>
<feBlend mode="normal" in="SourceGraphic" in2="effect2_dropShadow" result="shape"/>
</filter>
</defs>
</svg>
